# xmcd
#
# Track frame offsets:
#	150
#	3082
#	25426
#	45270
#	73201
#	84253
#	109184
#	134530
#	162212
#	184540
#	202465
#	220021
#	240880
#	273077
#	294084
#	317451
#	328499
#
# Disc length: 4396 seconds
#
# Revision: 1
# Processed by: cddbd v1.5.1PL0 Copyright (c) Steve Scherf et al.
# Submitted via: audiograbber 1.83.01
#
DISCID=e7112a11
DTITLE=Various Artist - Dim Absolu Easy Listening. (2001)
DYEAR=1900
DGENRE=
TTITLE0=Dimitri From Paris. - Prologue.
TTITLE1=Coldcut. - I'm Wild About That Thing.
TTITLE2=Gentle People. - World Of Love.
TTITLE3=Love TKO. - Love Thong.
TTITLE4=Dimitri From Paris. - Un Terlude.
TTITLE5=Jason Miles feat. Lisa Fisher. - Phone Sex.
TTITLE6=Fantastic Plastic Machine. - Green Door.
TTITLE7=Nick Faber. - Same Girl Different Wig.
TTITLE8=Kid Loco. - She Wolf Daydreaming.
TTITLE9=Hyper Crad. - 3.
TTITLE10=La Yellow. - Quelle Sensation Bizarre.
TTITLE11=Tony Silvester And The New Ingredient. - Pazuzu.
TTITLE12=Deadly Avenger. - In Pursuit Of The Pimp Mobile.
TTITLE13=Kensuke Shiina. - Longue Music.
TTITLE14=Sie. - Pepsi Tuckers Booty Beatdown.
TTITLE15=Chari Chari. - Strictly Porn.
TTITLE16=Dimitri From Paris. - Epilogue.
EXTD=
EXTT0=
EXTT1=
EXTT2=
EXTT3=
EXTT4=
EXTT5=
EXTT6=
EXTT7=
EXTT8=
EXTT9=
EXTT10=
EXTT11=
EXTT12=
EXTT13=
EXTT14=
EXTT15=
EXTT16=
PLAYORDER=
